<?xml version="1.0" encoding="UTF-8" standalone="no"?>
<!DOCTYPE svg PUBLIC "-//W3C//DTD SVG 1.1//EN" "http://www.w3.org/Graphics/SVG/1.1/DTD/svg11.dtd">
<svg width="100%" height="100%" viewBox="0 0 194 295" version="1.1" xmlns="http://www.w3.org/2000/svg" xmlns:xlink="http://www.w3.org/1999/xlink" xml:space="preserve" xmlns:serif="http://www.serif.com/" style="fill-rule:evenodd;clip-rule:evenodd;stroke-linecap:round;stroke-linejoin:round;stroke-miterlimit:1.5;">
    <g transform="matrix(1,0,0,1,-2288,-226)">
        <g>
            <g transform="matrix(1,0,0,1,1540,0)">
                <circle cx="845" cy="323" r="88" style="fill:none;stroke:rgb(233,223,46);stroke-width:2px;"/>
            </g>
            <g transform="matrix(1.09091,0,0,1.09091,1463.18,-29.3636)">
                <circle cx="845" cy="323" r="88" style="fill:none;stroke:rgb(233,223,46);stroke-width:1.83px;"/>
            </g>
            <g transform="matrix(0.261364,0,0,0.261364,2164.15,238.58)">
                <circle cx="845" cy="323" r="88" style="fill:rgb(233,223,46);"/>
            </g>
            <path d="M2363,324L2363,453L2408,453L2408,324" style="fill:none;stroke:rgb(233,223,46);stroke-width:1px;"/>
            <g transform="matrix(3.88889,0,0,1.33333,-6891.44,-108)">
                <path d="M2363,324L2363,453L2408,453L2408,324" style="fill:none;stroke:rgb(233,223,46);stroke-width:0.34px;"/>
            </g>
            <g transform="matrix(1,0,0,1,2235,397)">
                <text x="140.576px" y="123.191px" style="font-family:'ArialMT', 'Arial', sans-serif;font-size:24px;fill:rgb(233,223,46);">b</text>
            </g>
            <g transform="matrix(1,0,0,1,2236,347)">
                <text x="140.576px" y="123.191px" style="font-family:'ArialMT', 'Arial', sans-serif;font-size:24px;fill:rgb(233,223,46);">a</text>
            </g>
        </g>
    </g>
</svg>
